Coordinates
version=1
nRows=18
nColumns=32
inDegrees=yes

Units are S.I. units (second, meters, Newtons, ...)
If the header above contains a line with 'inDegrees', this indicates whether rotational values are in degrees (yes) or radians (no).

endheader
time	pelvis_tilt	pelvis_list	pelvis_rotation	pelvis_tx	pelvis_ty	pelvis_tz	hip_flexion_r	hip_adduction_r	hip_rotation_r	knee_angle_r	knee_adduction_r	med_cond_adduction_r	lat_cond_adduction_r	patella_r_constrained_knee_angle	hip_flexion_l	hip_adduction_l	hip_rotation_l	knee_angle_l	knee_adduction_l	med_cond_adduction_l	lat_cond_adduction_l	patella_l_constrained_knee_angle	lumbar_extension	lumbar_bending	lumbar_rotation	ankle_angle_r	subtalar_angle_r	mtp_angle_r	ankle_angle_l	subtalar_angle_l	mtp_angle_l
      0.31000000	     -8.91540476	      2.93231183	     -0.85713457	     -0.96395489	      0.86704431	      0.17912050	     33.41501014	     -8.74421659	      3.16230765	    -64.44301240	      8.15257037	     -0.00000000	     -0.00000000	     -1.12474275	     18.56114622	      7.92719651	      4.87573868	    -16.64961643	      2.27048416	      0.00000000	      0.00000000	     -0.29059063	     -7.35994330	     -3.65000932	      1.03606381	     -2.25449688	      0.99890759	     -0.00000000	      9.89933329	     16.57993115	      0.00000000
      0.31500000	     -8.97262060	      2.88502320	     -0.52593701	     -0.95768579	      0.86747006	      0.17895964	     34.08287790	     -8.82914668	      3.06586440	    -63.77639863	      8.23989726	     -0.00000000	     -0.00000000	     -1.11310814	     17.87145873	      7.93010326	      5.08445433	    -16.20981541	      2.27342037	     -0.00000000	     -0.00000000	     -0.28291465	     -7.29747698	     -3.58060304	      0.83306261	     -1.71054711	      0.42203595	     -0.00000000	     10.16358422	     16.75714276	      0.00000000
      0.32000000	     -9.00992524	      2.80440782	     -0.24408643	     -0.95136088	      0.86794036	      0.17886064	     34.67533549	     -8.83735526	      3.04679226	    -62.97553472	      8.35133829	     -0.00000000	     -0.00000000	     -1.09913043	     17.08941182	      7.87865910	      5.37868004	    -15.63228301	      2.29373722	     -0.00000000	     -0.00000000	     -0.27283481	     -7.22517204	     -3.43894265	      0.74835419	     -1.26963341	     -0.11400782	     -0.00000000	     10.26938310	     16.77094221	      0.00000000
      0.32500000	     -8.84363286	      2.85978177	      0.08546160	     -0.94514474	      0.86849401	      0.17876884	     35.04760643	     -9.03918606	      2.93074619	    -62.13711030	      8.38519924	      0.00000000	      0.00000000	     -1.08449716	     16.11602347	      7.99706867	      5.58014902	    -15.09533634	      2.24721901	     -0.00000000	     -0.00000000	     -0.26346332	     -7.59165058	     -3.65946110	      0.39301546	     -0.92816447	     -0.68615616	     -0.00000000	     10.38174921	     16.93346554	     -0.00000000
      0.33000000	     -8.80107706	      2.84471946	      0.33331406	     -0.93883329	      0.86891412	      0.17879935	     35.49089970	     -9.07169636	      2.94346288	    -61.16483513	      8.44671845	      0.00000000	      0.00000000	     -1.06752776	     15.27343859	      7.99182289	      5.69546631	    -14.54863638	      2.22224952	      0.00000000	      0.00000000	     -0.25392161	     -7.73253312	     -3.70181992	      0.14447612	     -0.59754473	     -1.25550415	     -0.00000000	     10.50245381	     17.05818294	     -0.00000000
      0.33500000	     -8.59746389	      2.85872663	      0.64986059	     -0.93262578	      0.86943056	      0.17875990	     35.73633928	     -9.19951424	      2.91351351	    -60.13914280	      8.52609138	     -0.00000000	     -0.00000000	     -1.04962605	     14.20334864	      8.03632169	      6.05544290	    -13.89549729	      2.22310188	      0.00000000	      0.00000000	     -0.24252218	     -8.07325012	     -3.80071237	     -0.39422430	     -0.29315174	     -1.82854727	     -0.00000000	     10.52729388	     17.02555839	     -0.00000000
      0.34000000	     -8.53650007	      2.85287805	      0.93698904	     -0.92639345	      0.86970505	      0.17881633	     36.09919693	     -9.25416019	      2.94623384	    -59.01919848	      8.60017115	     -0.00000000	     -0.00000000	     -1.03007934	     13.35026186	      8.03265265	      6.30506511	    -13.35995771	      2.22947907	     -0.00000000	     -0.00000000	     -0.23317525	     -8.24313264	     -3.85694425	     -0.72664937	     -0.04068228	     -2.51093649	     -0.00000000	     10.65084138	     17.06388697	      0.00000000
      0.34500000	     -8.48920802	      2.87353073	      1.22793081	     -0.92015149	      0.86986234	      0.17888135	     36.44914599	     -9.33168243	      2.97966529	    -57.82770502	      8.65715976	      0.00000000	      0.00000000	     -1.00928385	     12.55332068	      8.06795554	      6.50054499	    -12.90051543	      2.19798167	      0.00000000	      0.00000000	     -0.22515647	     -8.36707930	     -3.98007853	     -0.83371873	      0.15718326	     -3.22028355	     -0.00000000	     10.79699906	     17.15380088	      0.00000000
      0.35000000	     -8.43144361	      2.86887079	      1.51954411	     -0.91385404	      0.87002383	      0.17894690	     36.72063324	     -9.38436894	      3.03580493	    -56.51211498	      8.74296157	     -0.00000000	     -0.00000000	     -0.98632247	     11.69306921	      8.05297488	      6.82080651	    -12.33788778	      2.22770505	      0.00000000	      0.00000000	     -0.21533676	     -8.42749424	     -4.04484238	     -1.22988988	      0.31564267	     -3.99443901	     -0.00000000	     10.87680770	     17.07706894	     -0.00000000
      0.35500000	     -8.44499360	      2.91806994	      1.86588653	     -0.90768960	      0.86998013	      0.17902106	     37.06108519	     -9.50506148	      3.06970736	    -55.16556494	      8.76898242	      0.00000000	      0.00000000	     -0.96282074	     10.99914654	      8.12196872	      7.16083671	    -11.94299437	      2.22202230	     -0.00000000	     -0.00000000	     -0.20844457	     -8.57290359	     -4.20965907	     -1.45537222	      0.41592329	     -4.71649845	     -0.00000000	     11.02076395	     17.07549087	     -0.00000000
      0.36000000	     -8.79568963	      2.67582865	      2.24604657	     -0.90123999	      0.86953716	      0.17904464	     37.64960678	     -9.33514079	      2.83048250	    -53.67418609	      8.65736882	     -0.00000000	     -0.00000000	     -0.93679127	     10.81241359	      7.83145888	      7.26424182	    -11.84094157	      2.28280062	      0.00000000	      0.00000000	     -0.20666342	     -7.86857973	     -3.80748597	     -1.47386407	      0.69401410	     -4.90468352	      0.00000000	     11.47823195	     17.57121553	     -0.00000000
      0.36500000	     -8.40266646	      2.99637496	      2.46549433	     -0.89527979	      0.86983337	      0.17926859	     37.51711331	     -9.65621055	      3.25341204	    -52.14320508	      8.83141473	     -0.00000000	     -0.00000000	     -0.91007061	      9.53557461	      8.19415328	      7.74106400	    -11.13196180	      2.22771016	     -0.00000000	     -0.00000000	     -0.19428939	     -8.79689561	     -4.45356762	     -1.95056485	      0.45976525	     -6.35606331	      0.00000000	     11.25375191	     16.93753600	     -0.00000000
      0.37000000	     -8.41202019	      3.08378215	      2.75402881	     -0.88907863	      0.86959677	      0.17942629	     37.73209623	     -9.77296033	      3.38641949	    -50.52624661	      8.84214470	     -0.00000000	     -0.00000000	     -0.88184936	      8.88582281	      8.29060661	      7.93084178	    -10.82319312	      2.19469784	      0.00000000	      0.00000000	     -0.18890036	     -8.86819058	     -4.67408588	     -2.25101153	      0.41997318	     -7.16166161	      0.00000000	     11.39998958	     16.96336607	      0.00000000
      0.37500000	     -8.44583668	      3.22401435	      3.08675250	     -0.88291072	      0.86924731	      0.17952263	     37.93773114	     -9.97902557	      3.48335486	    -48.85835260	      8.82634664	      0.00000000	      0.00000000	     -0.85273912	      8.24132164	      8.46845813	      8.33660902	    -10.48457385	      2.15863054	      0.00000000	     -0.00000000	     -0.18299033	     -8.94048884	     -4.97411873	     -2.49327418	      0.41847143	     -7.80963676	     -0.00000000	     11.53270911	     16.77673883	     -0.00000000
      0.38000000	     -8.43539475	      3.27962081	      3.34919021	     -0.87671305	      0.86895126	      0.17969186	     38.02178450	    -10.04070790	      3.63682539	    -47.02426248	      8.80238448	     -0.00000000	     -0.00000000	     -0.82072821	      7.60090608	      8.51069663	      8.44923831	    -10.23172805	      2.14277770	     -0.00000000	     -0.00000000	     -0.17857734	     -9.06884080	     -5.08416434	     -2.66387964	      0.21007796	     -8.76793450	      0.00000000	     11.68276662	     16.77257624	      0.00000000
      0.38500000	     -8.49361279	      3.41684885	      3.69305042	     -0.87056899	      0.86845999	      0.17980720	     38.15988160	    -10.24542785	      3.66950345	    -45.18577305	      8.69886094	      0.00000000	      0.00000000	     -0.78864051	      7.06205059	      8.67531405	      8.67879871	    -10.04244904	      2.09493523	      0.00000000	      0.00000000	     -0.17527380	     -9.10936566	     -5.34217049	     -2.91496323	      0.12668037	     -9.30210900	      0.00000000	     11.85073080	     16.81444083	     -0.00000000
      0.39000000	     -8.57243505	      3.58777023	      3.99915232	     -0.86437934	      0.86793989	      0.17990438	     38.27443885	    -10.46351815	      3.85105383	    -43.23549775	      8.65600703	      0.00000000	      0.00000000	     -0.75460179	      6.46853681	      8.87942123	      9.04268321	     -9.72228759	      2.05458466	      0.00000000	      0.00000000	     -0.16968593	     -9.13445349	     -5.64306524	     -3.26140381	     -0.15842795	    -10.22207145	      0.00000000	     11.92936949	     16.53986591	      0.00000000
      0.39500000	     -8.59165305	      3.77776335	      4.22983926	     -0.85817510	      0.86738585	      0.18009101	     38.30246636	    -10.65168639	      3.96319869	    -41.24550345	      8.48976630	      0.00000000	      0.00000000	     -0.71986984	      5.90756350	      9.09029927	      8.94387203	     -9.58503400	      1.94330492	     -0.00000000	     -0.00000000	     -0.16729040	     -9.24514308	     -5.91912332	     -3.37029549	     -0.33764295	    -10.67835532	     -0.00000000	     12.06830010	     16.84535313	     -0.00000000
